<svg xmlns="http://www.w3.org/2000/svg" width="20" height="23"><path d="M18.57 2.88h-1.43V1.44A1.43 1.43 0 0 0 15.71 0H1.43A1.43 1.43 0 0 0 0 1.44v17.25a1.44 1.44 0 0 0 1.43 1.44h1.43v1.43A1.43 1.43 0 0 0 4.29 23h14.28A1.43 1.43 0 0 0 20 21.56V4.31a1.43 1.43 0 0 0-1.43-1.43zM1.43 18.69V1.44h14.28v17.25zm17.14 2.87H4.29v-1.43h11.42a1.44 1.44 0 0 0 1.43-1.44V4.31h1.43v17.25z" fill="#13aeff"/><path d="M13.57 4.31H6.43a.72.72 0 0 0 0 1.44h7.14a.72.72 0 1 0 0-1.44zM13.57 8.63h-10a.72.72 0 0 0 0 1.43h10a.72.72 0 1 0 0-1.43zM13.57 11.5h-10a.72.72 0 0 0 0 1.44h10a.72.72 0 1 0 0-1.44zM13.57 14.38h-10a.72.72 0 0 0 0 1.43h10a.72.72 0 1 0 0-1.43z" fill="#13aeff"/></svg>