<?xml version="1.0" encoding="utf-8"?>
<!-- Generator: Adobe Illustrator 20.1.0, SVG Export Plug-In . SVG Version: 6.00 Build 0)  -->
<svg version="1.1" id="Слой_1" xmlns="http://www.w3.org/2000/svg" xmlns:xlink="http://www.w3.org/1999/xlink" x="0px" y="0px"
	 viewBox="0 0 90.5 104.2" style="enable-background:new 0 0 90.5 104.2;" xml:space="preserve">
<style type="text/css">
	.st0{fill:#8D734A;}
</style>
<g>
	<g>
		<path class="st0" d="M61.2,35.3c-0.6,0.8-1.4,2.1-2.4,3.9c-1,1.8-1.4,4-1.4,6.7c0,2.4,0.5,4.6,1.6,6.8c1.1,2.2,2.4,4.3,4,6.3
			c1.6,2,3.3,4,5.1,6.1c1.8,2,3.5,4.1,5.1,6.2c1.6,2.1,3,4.4,4,6.7c1.1,2.3,1.6,4.8,1.6,7.5c0,1.5-0.2,2.9-0.5,4
			c-0.3,1.1-0.8,2.2-1.3,3.1c-0.5,0.9-1.1,1.7-1.6,2.3c-0.5,0.7-1,1.2-1.4,1.7c1.1-0.2,2.3-0.5,3.5-1.1c1.2-0.6,2.2-1.4,3.2-2.4
			c1-1,1.7-2.2,2.3-3.7c0.6-1.4,0.9-3,0.9-4.9c0-2.7-0.6-5.3-1.7-7.7c-1.1-2.4-2.6-4.7-4.3-6.9c-1.8-2.2-3.6-4.4-5.7-6.5
			c-2-2.1-3.9-4.2-5.7-6.4c-1.8-2.1-3.2-4.3-4.4-6.6c-1.1-2.2-1.7-4.6-1.7-7.1c0-1.6,0.3-3.2,0.8-4.9c0.5-1.7,1.3-3.2,2.5-4.6
			c1.2-1.4,2.7-2.5,4.6-3.4c1.9-0.9,4.3-1.3,7.1-1.3c1.9,0,3.7,0.2,5.3,0.5c1.6,0.3,3.1,0.8,4.4,1.3c1.3,0.5,2.3,1,3.2,1.5
			c0.9,0.5,1.6,0.9,2.1,1.2l-2.9,7.2c-0.2-0.5-0.6-1.2-1.1-2.2c-0.5-1-1.3-2-2.3-3c-1-1-2.3-1.9-3.8-2.6c-1.5-0.7-3.4-1.1-5.5-1.1
			c-2.2,0-4.1,0.4-5.6,1.1c-1.5,0.8-2.8,1.7-3.8,2.9c-1,1.2-1.7,2.5-2.1,3.9c-0.4,1.4-0.6,2.8-0.6,4.2c0,2.2,0.6,4.4,1.7,6.5
			c1.2,2.1,2.5,4.2,4.2,6.3c1.7,2.1,3.5,4.2,5.5,6.2c2,2.1,3.8,4.2,5.5,6.5c1.7,2.2,3.1,4.6,4.2,7.1c1.1,2.5,1.7,5.1,1.7,7.8
			c0,2.6-0.5,4.8-1.5,6.7c-1,1.9-2.3,3.4-3.8,4.6c-1.5,1.2-3.2,2.2-5,2.8c-1.8,0.7-3.6,1-5.3,1.1c-0.8,0.8-2.4,1.7-4.6,2.7
			c-2.2,1.1-5.4,1.6-9.3,1.6c-2.9,0-5.6-0.4-8.2-1.2c-2.6-0.8-4.9-1.8-6.9-3.3c-2-1.4-3.6-3.1-4.8-5.1c-1.2-2-1.8-4.2-1.8-6.7v-1.3
			l7.4-5.7c-0.3,0.9-0.6,1.9-0.8,2.8c-0.2,1-0.3,2-0.3,3c0,1.8,0.4,3.7,1.1,5.6c0.8,1.9,1.9,3.5,3.4,5c1.5,1.5,3.3,2.7,5.4,3.7
			c2.1,1,4.5,1.4,7.1,1.4c2.7,0,4.9-0.5,6.8-1.4c1.8-1,3.3-2.2,4.5-3.7c1.1-1.5,2-3.1,2.4-5c0.5-1.8,0.8-3.6,0.8-5.3
			c0-2.6-0.5-5-1.5-7.2c-1-2.2-2.3-4.3-3.8-6.4c-1.5-2-3.2-4-4.9-5.9c-1.8-1.9-3.4-3.9-4.9-5.9c-1.5-2-2.8-4.2-3.8-6.4
			c-1-2.2-1.5-4.7-1.5-7.4c0-2.5,0.4-4.6,1.1-6.2c0.8-1.6,3.3-5.9,3.7-6.5L61.2,35.3z"/>
	</g>
	<g>
		<path class="st0" d="M21.5,58.3c0.2-2.2,1-4.7,2.2-7.4c1.3-2.7,2.8-5.5,4.8-8.4c1.9-2.9,4.1-5.9,6.5-8.9c2.4-3,4.9-6,7.4-8.9
			c2.6-2.9,5.1-5.6,7.5-8.2c2.5-2.6,4.8-4.9,6.8-6.9c-0.7,0-2.1-0.2-4.3-0.5c-2.2-0.3-4.6-0.6-7.1-1c-2.6-0.3-5.2-0.6-7.7-0.9
			C35,7,33.1,6.9,31.7,6.9c-2.1,0-4.1,0.2-6.1,0.7c-2,0.5-3.9,1.1-5.7,2.1l6.7-9.3C28.3,0.1,30,0,31.8,0c2.9,0,5.5,0.2,7.7,0.6
			C41.8,1,44,1.5,46.2,1.9c2.2,0.5,4.5,1,6.9,1.4C55.5,3.8,58.3,4,61.5,4C63.2,4,65,3.8,67,3.5c2-0.3,3.7-0.8,5.3-1.4l-3.8,6.7
			c-4.1,4.2-7.7,8-10.6,11.4c-3,3.4-5.5,6.6-7.6,9.4c-2.1,2.9-3.9,5.5-5.3,7.9c-1.4,2.4-2.7,4.6-3.9,6.7c-1.4,2.6-2.6,4.9-3.5,6.8
			c-0.9,1.9-1.6,3.7-2.3,5.1c-0.6,1.5-1.2,2.8-1.8,4c-0.5,1.2-1.1,2.3-1.8,3.3c-0.1,0.2-0.3,0.3-0.4,0.5c-0.1,0.2-0.2,0.4-0.4,0.6
			c0.5,0.1,1.3,0.4,2.6,0.9c1.3,0.4,2.8,0.9,4.5,1.3c1.7,0.5,3.5,0.9,5.5,1.2c2,0.3,3.8,0.5,5.6,0.5c2.9,0,5.8-0.5,8.9-1.4
			c3-1,5.8-2.2,8.3-3.7l1.4,5.8c-1.8,0.8-6.9,4.4-11.3,5c-1.9,0.3-3.7,0.7-5.5,0.7c-2.8,0-5.5-0.2-8.3-0.7c-2.8-0.5-5.3-1-7.6-1.6
			c-2.3-0.6-4.2-1.2-5.8-1.7c-1.6-0.5-2.5-0.8-2.9-1c-0.5,0.4-1.2,0.9-1.9,1.4c-0.7,0.6-1.6,1.1-2.7,1.7c-1.1,0.5-2.3,1-3.7,1.3
			c-1.4,0.3-3,0.5-4.9,0.5c-3.7,0-6.7-0.7-9.3-2.2C1.3,71.3,0,69.4,0,67c0-1.4,0.3-2.5,0.9-3.4c0.6-0.9,1.4-1.7,2.3-2.2
			c0.9-0.6,1.9-1,2.9-1.2c1-0.2,2-0.3,2.8-0.3c1.5,0,3.3,0.2,5.4,0.6c2.1,0.4,4.2,0.8,6.2,1.4c2,0.5,3.8,1,5.4,1.5
			c1.6,0.5,2.6,0.8,3,0.9c0.7-0.7,1.4-1.8,2.3-3.4c0.8-1.6,1.8-3.5,2.7-5.6c1-2.1,2-4.4,3.1-6.8c1.1-2.4,2.3-4.8,3.5-7.2
			c1.7-3.4,3.7-6.7,6.2-10.1c2.4-3.4,4.9-6.5,7.3-9.3c2.4-2.9,4.6-5.4,6.7-7.5c2.1-2.2,3.7-3.7,4.7-4.6c-0.4,0-0.7,0-1,0.1
			c-0.3,0-0.6,0.1-1,0.1c-0.3,0-0.8,0-1.4-0.1c-0.6,0-1.1-0.1-1.4-0.1c-2.6,2.7-5.5,5.9-8.8,9.8c-3.3,3.8-6.5,7.9-9.5,12.1
			c-3.1,4.2-5.8,8.5-8.2,12.7c-2.4,4.2-3.9,8.1-4.7,11.6L21.5,58.3z M2.3,67.3c0,1.8,1,3.2,3.1,4.3c2.1,1.1,4.5,1.7,7.4,1.7
			c3.2,0,5.6-0.5,7.3-1.4c1.6-0.9,3-1.8,4.1-2.5c-0.4-0.1-1.3-0.5-2.8-1.1c-1.5-0.6-3.1-1.2-5-1.8c-1.8-0.6-3.7-1.2-5.6-1.8
			c-1.9-0.5-3.4-0.8-4.5-0.8c-1.1,0-2,0.3-2.8,0.9C2.7,65.4,2.3,66.2,2.3,67.3z"/>
	</g>
	<path class="st0" d="M35.8,29.8c0.6,0.1,1.7,0.1,3.5,0.3c1.8,0.2,3.7,0.4,5.8,0.6c2.1,0.2,4.2,0.4,6.3,0.6c2.1,0.2,3.7,0.2,4.8,0.2
		c1.7-0.1,3.3-0.3,5-0.8c1.6-0.5,2.2-1.1,3.7-2l-5,8.5c-1.4,0.2-2.5,0.1-3.9,0.1c-2.4,0.1-4.5,0-6.3-0.3c-1.8-0.3-3.6-0.6-5.4-0.9
		c-1.8-0.4-3.7-0.7-5.6-1c-2-0.3-4.2-0.4-6.8-0.3c-1.4,0-5.1,0-7.4,0.5c-2.5,0.6-4.2,1.4-5.5,2l3.5-6.4
		C22.4,30.8,30.1,29.2,35.8,29.8z"/>
</g>
</svg>
