<svg xmlns="http://www.w3.org/2000/svg" width="33.563" height="34.31" viewBox="0 0 33.563 34.31">
  <metadata><?xpacket begin="﻿" id="W5M0MpCehiHzreSzNTczkc9d"?>
<x:xmpmeta xmlns:x="adobe:ns:meta/" x:xmptk="Adobe XMP Core 5.6-c138 79.159824, 2016/09/14-01:09:01        ">
   <rdf:RDF xmlns:rdf="http://www.w3.org/1999/02/22-rdf-syntax-ns#">
      <rdf:Description rdf:about=""/>
   </rdf:RDF>
</x:xmpmeta>
                                                                                                    
                                                                                                    
                                                                                                    
                                                                                                    
                                                                                                    
                                                                                                    
                                                                                                    
                                                                                                    
                                                                                                    
                                                                                                    
                                                                                                    
                                                                                                    
                                                                                                    
                                                                                                    
                                                                                                    
                                                                                                    
                                                                                                    
                                                                                                    
                                                                                                    
                                                                                                    
                           
<?xpacket end="w"?></metadata>
<defs>
    <style>
      .cls-1 {
        fill: #fdd100;
        fill-rule: evenodd;
      }
    </style>
  </defs>
  <path id="_4" data-name="4" class="cls-1" d="M833.689,2490.16c0-.57.1-0.78,0.416-0.78s4.264,0.16,5.044.21c0.676,0.05,1.092-1.46.468-1.46-0.728,0-4.888.11-5.3,0.11-0.364,0-.624,0-0.624-0.47v-10.82c0-3.85.052-9.31,0.208-11.8a0.635,0.635,0,0,0-.572-0.78h-6.4c0.156,2.44.728,8.53,0.728,13v8.16c0,6.35-.468,10.77-0.572,13.11,1.664-.05,8.737-0.05,10.453.05,0.312,0,.364-1.2,0-1.25-1.2-.1-3.12-0.1-3.38-0.99a21.113,21.113,0,0,1-.468-5.3v-0.99Zm-10.661.63a34.079,34.079,0,0,1-.312,5.66c-0.1.84-2.444,0.89-3.8,0.99a1.017,1.017,0,0,0,0,1.25c1.56-.1,4.42-0.1,6.032-0.05-0.1-2.03-.728-8.95-0.728-13.47v-5.41c0-5.25.624-12.69,0.624-15.39h-0.884a0.753,0.753,0,0,0-.728.47c-2.132,3.32-4.732,6.96-8.008,11.49-3.068,4.11-6.084,8.16-8.581,11.28-0.468.73-.312,1.67,0.364,1.72,2.185,0.16,13.261.1,15.341,0.1a0.585,0.585,0,0,1,.676.68v0.68Zm0-3.28c0,0.62-.26.83-0.936,0.83-1.456,0-9.828-.26-12.272-0.52-0.624-.1-0.624-0.47-0.26-1.14a98.536,98.536,0,0,1,6.552-9.31c2.6-3.54,4.472-5.98,6.084-8.01,0.52-.68.832-0.42,0.832,0.1v18.05Z" transform="translate(-806.375 -2464.38)"/>
</svg>
