<svg xmlns="http://www.w3.org/2000/svg" width="28.125" height="34.5" viewBox="0 0 28.125 34.5">
  <metadata><?xpacket begin="﻿" id="W5M0MpCehiHzreSzNTczkc9d"?>
<x:xmpmeta xmlns:x="adobe:ns:meta/" x:xmptk="Adobe XMP Core 5.6-c138 79.159824, 2016/09/14-01:09:01        ">
   <rdf:RDF xmlns:rdf="http://www.w3.org/1999/02/22-rdf-syntax-ns#">
      <rdf:Description rdf:about=""/>
   </rdf:RDF>
</x:xmpmeta>
                                                                                                    
                                                                                                    
                                                                                                    
                                                                                                    
                                                                                                    
                                                                                                    
                                                                                                    
                                                                                                    
                                                                                                    
                                                                                                    
                                                                                                    
                                                                                                    
                                                                                                    
                                                                                                    
                                                                                                    
                                                                                                    
                                                                                                    
                                                                                                    
                                                                                                    
                                                                                                    
                           
<?xpacket end="w"?></metadata>
<defs>
    <style>
      .cls-1 {
        fill: #fdd100;
        fill-rule: evenodd;
      }
    </style>
  </defs>
  <path id="_5" data-name="5" class="cls-1" d="M716.592,2771.88c5.3-.32,11.8-3.64,11.8-11.13s-5.717-11.28-14.554-11.85a0.885,0.885,0,0,1-.987-0.93c0-.94.1-2.08,0.26-3.8a30.231,30.231,0,0,1,.675-4.42,0.777,0.777,0,0,1,.728-0.73l4.158,0.06a6.813,6.813,0,0,1,7.121,5.45c0.052,0.37,1.352.21,1.352-.05a46.865,46.865,0,0,0-.468-5.97,0.891,0.891,0,0,0-.988-0.78c-4.262,0-14.762.15-18.764-.06a52.647,52.647,0,0,1,.052,6.4c-0.156,2.13-.52,4.05-0.728,5.66a0.792,0.792,0,0,0,.832.99c9.616,0.05,14.5,4.37,14.5,11.18,0,4.88-2.547,8.62-5.51,9.66C715.812,2771.67,716.124,2771.93,716.592,2771.88Zm-8.316.31c6.185,0,9.824-4.16,9.824-9.93,0-5.82-4.886-9.67-13.723-9.77a0.792,0.792,0,0,1-.883-0.94,40.044,40.044,0,0,1,.052-6.08,47.584,47.584,0,0,1,1.351-7.69h-1.611c-0.364,0-.52.31-0.52,0.88-0.052,2.13-.1,4.42-0.364,6.91-0.26,2.76-.468,4.89-0.676,7.07-0.052.63,0.416,0.89,1.144,0.89,9.512,0,13.2,4.05,13.2,8.68,0,4.99-2.5,8.42-7.121,8.42-3.95,0-6.185-4.32-7.121-6.6a1.086,1.086,0,0,0-1.351.05,10.225,10.225,0,0,0,.1,4.52c0.727,2.18,2.963,3.59,7.641,3.59h0.052Z" transform="translate(-700.281 -2737.69)"/>
</svg>
