<svg xmlns="http://www.w3.org/2000/svg" width="21.281" height="34.19" viewBox="0 0 21.281 34.19">
  <metadata><?xpacket begin="﻿" id="W5M0MpCehiHzreSzNTczkc9d"?>
<x:xmpmeta xmlns:x="adobe:ns:meta/" x:xmptk="Adobe XMP Core 5.6-c138 79.159824, 2016/09/14-01:09:01        ">
   <rdf:RDF xmlns:rdf="http://www.w3.org/1999/02/22-rdf-syntax-ns#">
      <rdf:Description rdf:about=""/>
   </rdf:RDF>
</x:xmpmeta>
                                                                                                    
                                                                                                    
                                                                                                    
                                                                                                    
                                                                                                    
                                                                                                    
                                                                                                    
                                                                                                    
                                                                                                    
                                                                                                    
                                                                                                    
                                                                                                    
                                                                                                    
                                                                                                    
                                                                                                    
                                                                                                    
                                                                                                    
                                                                                                    
                                                                                                    
                                                                                                    
                           
<?xpacket end="w"?></metadata>
<defs>
    <style>
      .cls-1 {
        fill: #fdd100;
        fill-rule: evenodd;
      }
    </style>
  </defs>
  <path id="_1" data-name="1" class="cls-1" d="M470.355,1264.27c0,8.16-.468,12.32-0.572,14.66,2.235-.05,8.524-0.05,10.759.05,0.312,0,.364-1.2,0-1.25-2.183-.1-3.534-0.31-3.69-1.77a109.427,109.427,0,0,1-.416-11.07v-7.64c0-3.84.156-9.3,0.312-11.85,0-.36,0-0.62-0.468-0.62h-6.653c0.156,2.34.728,8.42,0.728,12.89v6.6Zm-4.626.67c0,7.91,0,9.62-.312,11.28-0.156.84-1.352,1.36-4.055,1.51-0.311,0-.259,1.25,0,1.25,1.664-.1,4.679-0.1,6.29-0.05-0.1-2.03-.728-10.4-0.728-16.12v-4.67c0-4.37.468-10.92,0.624-13.36h-0.364a1.469,1.469,0,0,0-.78.36,59.127,59.127,0,0,1-6.809,4.37c-0.312.15,0.26,1.35,0.52,1.19,4.626-2.23,5.2-1.82,5.25-1.24,0.156,1.66.364,5.61,0.364,8.94v6.54Z" transform="translate(-459.5 -1244.78)"/>
</svg>
