<svg xmlns="http://www.w3.org/2000/svg" width="28.406" height="34.59" viewBox="0 0 28.406 34.59">
  <metadata><?xpacket begin="﻿" id="W5M0MpCehiHzreSzNTczkc9d"?>
<x:xmpmeta xmlns:x="adobe:ns:meta/" x:xmptk="Adobe XMP Core 5.6-c138 79.159824, 2016/09/14-01:09:01        ">
   <rdf:RDF xmlns:rdf="http://www.w3.org/1999/02/22-rdf-syntax-ns#">
      <rdf:Description rdf:about=""/>
   </rdf:RDF>
</x:xmpmeta>
                                                                                                    
                                                                                                    
                                                                                                    
                                                                                                    
                                                                                                    
                                                                                                    
                                                                                                    
                                                                                                    
                                                                                                    
                                                                                                    
                                                                                                    
                                                                                                    
                                                                                                    
                                                                                                    
                                                                                                    
                                                                                                    
                                                                                                    
                                                                                                    
                                                                                                    
                                                                                                    
                           
<?xpacket end="w"?></metadata>
<defs>
    <style>
      .cls-1 {
        fill: #fdd100;
        fill-rule: evenodd;
      }
    </style>
  </defs>
  <path id="_2" data-name="2" class="cls-1" d="M569.144,1505.59c0.416-6.61,4.42-11.39,8.424-14.88,3.64-3.12,6.812-6.86,6.812-11.85,0-4.53-2.912-7.7-7.488-7.7-4.836,0-7.176,1.92-7.8,3.95a9.354,9.354,0,0,0-.052,4.32,1.1,1.1,0,0,0,1.352.05c0.728-1.92,2.808-6.81,6.864-6.81,3.068,0,5.1,2.6,5.1,6.34,0,4.42-2.5,8.22-5.98,11.24-4.056,3.53-8.632,8.68-9.517,14.71-0.052.42,0,.63,0.312,0.63h1.977Zm24.7,0.15a0.724,0.724,0,0,0,.78-0.57,39.149,39.149,0,0,0,.624-6.4,1.089,1.089,0,0,0-1.3-.05c-0.78,2.5-2.029,4.27-4.681,4.94a53.82,53.82,0,0,1-9.048.68c-0.52,0-.832-0.11-0.832-0.52,0.1-3.64,4.628-8.43,8.164-11.34,4.056-3.48,7.229-7.18,7.229-11.7,0-5.88-5.253-9.26-10.973-9.31-0.364,0-.624.21-0.312,0.26,2.34,0.94,4.42,3.33,4.42,7.49,0,4.68-2.392,8.06-6.292,11.29-3.744,3.38-9.464,9.04-10.14,15.13,3.744-.05,7.02-0.05,10.192-0.05,2.5,0,5.3.05,7.644,0.05,2.288,0.05,4.057.1,4.473,0.1h0.052Z" transform="translate(-566.844 -1471.16)"/>
</svg>
