<svg xmlns="http://www.w3.org/2000/svg" width="28.25" height="34.72" viewBox="0 0 28.25 34.72">
  <metadata><?xpacket begin="﻿" id="W5M0MpCehiHzreSzNTczkc9d"?>
<x:xmpmeta xmlns:x="adobe:ns:meta/" x:xmptk="Adobe XMP Core 5.6-c138 79.159824, 2016/09/14-01:09:01        ">
   <rdf:RDF xmlns:rdf="http://www.w3.org/1999/02/22-rdf-syntax-ns#">
      <rdf:Description rdf:about=""/>
   </rdf:RDF>
</x:xmpmeta>
                                                                                                    
                                                                                                    
                                                                                                    
                                                                                                    
                                                                                                    
                                                                                                    
                                                                                                    
                                                                                                    
                                                                                                    
                                                                                                    
                                                                                                    
                                                                                                    
                                                                                                    
                                                                                                    
                                                                                                    
                                                                                                    
                                                                                                    
                                                                                                    
                                                                                                    
                                                                                                    
                           
<?xpacket end="w"?></metadata>
<defs>
    <style>
      .cls-1 {
        fill: #fdd100;
        fill-rule: evenodd;
      }
    </style>
  </defs>
  <path id="_3" data-name="3" class="cls-1" d="M468.12,1752.19c5.873,0,9.824-3.75,9.824-9.46,0-5.41-3.951-8.48-8.317-9v-0.1c3.95-.88,7.537-3.53,7.537-8.52,0-4.58-2.807-7.64-8.109-7.64-4.47,0-7.017,1.66-7.693,3.84a9.62,9.62,0,0,0-.155,4.37,1.27,1.27,0,0,0,1.351.05c0.832-2.24,3.015-6.76,6.965-6.76,3.483,0,5.614,2.13,5.614,6.14,0,4.67-2.911,7.74-8.317,7.74-0.572,0-1.4-.1-2.5-0.21-0.727,0-.727,2.03,0,1.98,1.144-.05,2.079-0.16,2.651-0.16,5.666,0,8.94,3.54,8.94,8.27,0,4.57-2.754,7.95-7.017,7.95-4.106,0-6.393-4.47-7.173-6.65a1.083,1.083,0,0,0-1.351.05,10.45,10.45,0,0,0,.052,4.57c0.676,2.19,3.223,3.54,7.641,3.54h0.052Zm8.108-.31c6.29-.16,12.163-2.97,12.163-9.83,0-4.57-2.963-7.22-6.5-8.52v-0.11a8.652,8.652,0,0,0,5.666-7.85c0-5.45-5.146-7.69-11.072-7.74-0.416,0-.676.21-0.364,0.31,2.7,0.78,4.522,3.43,4.522,6.91a9.073,9.073,0,0,1-5.717,8.42v0.11a9.287,9.287,0,0,1,6.5,9.25c0,4.32-2.391,7.75-5.666,8.68C475.449,1751.67,475.864,1751.88,476.228,1751.88Z" transform="translate(-460.156 -1717.47)"/>
</svg>
