<svg xmlns="http://www.w3.org/2000/svg" width="44.38" height="37.58">
  <path d="M38.38 20.81h2.4a1.91 1.91 0 0 1 1.9 1.91 1.9 1.9 0 0 1-1.9 1.9h-2.4a.87.87 0 1 0 0 1.74h2.4a1.91 1.91 0 0 1 1.9 1.9v.12a1.9 1.9 0 0 1-1.9 1.9h-2.4a.87.87 0 0 0 0 1.74h2.4a1.9 1.9 0 0 1 0 3.8h-18a7.42 7.42 0 0 1-5.16-2.07l-.82-.8V17.19a21.17 21.17 0 0 0 3.18-2.16 22.79 22.79 0 0 0 6.4-8.68 17.7 17.7 0 0 0 1.1-3.38A1.53 1.53 0 0 1 29 1.74a1.68 1.68 0 0 1 1.67 1.68v2.37a14 14 0 0 1-2.65 8 .87.87 0 0 0 .7 1.38h12a1.9 1.9 0 0 1 1.9 1.9v.1a1.9 1.9 0 0 1-1.9 1.9h-2.34a.87.87 0 0 0-.77 1 .85.85 0 0 0 .77.77zm-23.39-4.15v18.49a.7.7 0 0 1-.7.7h-3.16V28.3a.87.87 0 0 0-1.73 0v7.55H1.73V15.18h12.56a.7.7 0 0 1 .7.7v.78zm29.39.51v-.07a3.65 3.65 0 0 0-3.64-3.64H30.38a15.62 15.62 0 0 0 2.1-7.6V3.42a3.41 3.41 0 0 0-5.84-2.4 3.3 3.3 0 0 0-.83 1.59 15.53 15.53 0 0 1-.95 3 21.21 21.21 0 0 1-6 8 20.87 20.87 0 0 1-2.18 1.54 2.45 2.45 0 0 0-2.34-1.79H.87a.87.87 0 0 0-.87.87v22.4a.87.87 0 0 0 .87.87h13.42a2.43 2.43 0 0 0 2.42-2.22 9.08 9.08 0 0 0 6 2.22h18a3.64 3.64 0 0 0 2.36-6.41 3.64 3.64 0 0 0 1.31-2.69v-.11a3.68 3.68 0 0 0-1.28-2.78 3.64 3.64 0 0 0 1.28-2.77 3.66 3.66 0 0 0-1.28-2.77 3.62 3.62 0 0 0 1.28-2.8z" fill="#fff"/>
</svg>
