<svg xmlns="http://www.w3.org/2000/svg" width="43.87" height="47.66">
  <path d="M39.64 45.78A2.36 2.36 0 1 1 42 43.42a2.36 2.36 0 0 1-2.36 2.36zm-15.35-2.36a2.36 2.36 0 1 1-2.36-2.36 2.36 2.36 0 0 1 2.36 2.36zm-17.7 0a2.37 2.37 0 1 1-4.73 0 2.37 2.37 0 0 1 4.73 0zm34-4.12v-2.08a3.48 3.48 0 0 0-3.48-3.48H22.86v-.86a.93.93 0 0 0-1.86 0v.86H6.77a3.48 3.48 0 0 0-3.47 3.48v2.09a4.23 4.23 0 1 0 1.86 0v-2.09a1.61 1.61 0 0 1 1.61-1.62H21v3.71a4.23 4.23 0 1 0 1.86 0v-3.7h14.23a1.62 1.62 0 0 1 1.62 1.62v2.08a4.23 4.23 0 1 0 1.86 0zM28.01 19.83a9.75 9.75 0 0 0-2.94-1.59 5 5 0 1 0-6.65.14 9.46 9.46 0 0 0-5.44 5.28 12.71 12.71 0 1 1 17.91 0 9.46 9.46 0 0 0-2.88-3.82zm-9.46-5.22a3.13 3.13 0 0 1 6.25-.3 2 2 0 0 1 0 .35 3.13 3.13 0 0 1-6.25 0zm3.38 12.7a12.69 12.69 0 0 1-7.44-2.41 7.86 7.86 0 0 1 14.89 0 12.63 12.63 0 0 1-7.45 2.41zm0-27.35c-4 .12-8.63 1.12-13 8a14.35 14.35 0 0 0 6.23 19.54c3.15 2.21 10.48 2.19 14.92-.82q.52-.36 1-.75a14.58 14.58 0 0 0 2.3-20.45A14.76 14.76 0 0 0 21.93 0z" fill="#fff"/>
  <path d="M21 30.58a.93.93 0 0 1 1.86 0 .93.93 0 1 1-1.86 0z" fill="#fff"/>
</svg>
