<svg xmlns="http://www.w3.org/2000/svg" width="47.66" height="42.83">
  <path d="M23.83 31.66a.93.93 0 0 0 0 1.86.93.93 0 0 0 0-1.86z" fill="#fff"/>
  <path d="M45.8 13.97a.93.93 0 0 1-.93.93h-.93V9.32h.93a.93.93 0 0 1 .93.93zm-3.73.93H26.81a8 8 0 0 0-1-1 5.51 5.51 0 0 0 3.37-2.07 3.25 3.25 0 0 0 4.56.55 2.28 2.28 0 0 0 .33-.29 3.25 3.25 0 0 0 5.59-2.26v-.51h2.42zm-4.28 2.66a8.58 8.58 0 0 1-.93 3.65 9.78 9.78 0 0 0-.93 4.15v2.58h-13v-2.35a6.46 6.46 0 0 0-1.91-4.6l-3.24-3.25a4.63 4.63 0 0 1-1.37-3.29v-.48a4.68 4.68 0 0 1 4.66-4.65h7.33a3.7 3.7 0 0 1-3.61 2.8h-2.83a.93.93 0 0 0-.15 1.84 5.77 5.77 0 0 1 3.77 2.4 5.74 5.74 0 0 1 1 3.28v1.77a.93.93 0 1 0 1.86 0v-1.77a7.54 7.54 0 0 0-.58-2.87h9.9zm0 23.4H21.04V29.83h16.75zm-23.27-27v.48a3.39 3.39 0 0 0 0 .45h-4.34a6.23 6.23 0 0 0 0-5.58h6.3a6.56 6.56 0 0 0-1.96 4.66zm-6.37.7l-5.14-2.55 5.14-2.57a4.35 4.35 0 0 1 0 5.14zM21.04 3.27a1.4 1.4 0 0 1 2.79 0v4.19h-2.8zm4.65 0a1.4 1.4 0 1 1 2.8 0v4.19h-2.83zm4.66 0a1.4 1.4 0 0 1 2.79 0v6.56a1.4 1.4 0 0 1-2.8 0zM35 5.13a1.4 1.4 0 1 1 2.8 0v4.7a1.4 1.4 0 1 1-2.8 0zm9.87 2.33h-5.21V5.13a3.24 3.24 0 0 0-3.23-3.3 3.15 3.15 0 0 0-1.56.4A3.26 3.26 0 0 0 30.73.18a3.32 3.32 0 0 0-1.31.81 3.24 3.24 0 0 0-4.58 0 3.25 3.25 0 0 0-5.58 2.28v4.19H8.01l-7.5 3.82a.93.93 0 0 0-.41 1.25.9.9 0 0 0 .41.41l7.43 3.72h.07l.17.05h6.7a6.45 6.45 0 0 0 1.48 2.3l3.3 3.29a4.64 4.64 0 0 1 1.37 3.3v2.34h-.93a.93.93 0 0 0-.93.93v13a.93.93 0 0 0 .93.93h18.62a.93.93 0 0 0 .93-.93V28.83a.93.93 0 0 0-.93-.93h-.93v-2.54a7.92 7.92 0 0 1 .75-3.35 10.41 10.41 0 0 0 1.12-4.45v-.8h5.22a2.8 2.8 0 0 0 2.78-2.79v-3.72a2.8 2.8 0 0 0-2.8-2.8z" fill="#fff"/>
  <path d="M35 31.66h-7.45a.93.93 0 0 0 0 1.86H35a.93.93 0 0 0 0-1.86z" fill="#fff"/>
</svg>
