<svg xmlns="http://www.w3.org/2000/svg" width="45.37" height="33.89">
  <path d="M40.9 12.51l-18.13-1.64a.944.944 0 0 0-.17 1.88l15.09 1.36-15 7.5-19.61-9.8 19.6-9.8 19.62 9.8zm1.24 12.16a1 1 0 1 1-1-1 1.06 1.06 0 0 1 1 1zm-2.06 7.34l1-2.68 1 2.68zm-7.91-4.44a21.73 21.73 0 0 1-9.48 2 21.74 21.74 0 0 1-9.49-2c-2.27-1.13-3.58-2.63-3.58-4.1v-6.28l12.64 6.32a1 1 0 0 0 .85 0l12.64-6.32v6.28c0 1.47-1.3 2.97-3.58 4.1zm12.66-16.6L23.11.1a.91.91 0 0 0-.85 0L.54 10.96a.94.94 0 0 0-.45 1.25.9.9 0 0 0 .45.46l7.2 3.59v7.21c0 4.45 6.56 8 15 8s14.95-3.5 14.95-7.95v-7.27l2.51-1.26v6.9a2.94 2.94 0 0 0-.32 5.42l-2 5.3a.94.94 0 0 0 .54 1.22 1 1 0 0 0 .34.06h4.77a.94.94 0 0 0 .94-.94 1 1 0 0 0-.06-.34l-2-5.3a2.94 2.94 0 0 0-.39-5.43v-7.83l2.8-1.4a.94.94 0 0 0 .43-1.26.9.9 0 0 0-.43-.43z" fill="#fff"/>
</svg>
