<svg xmlns="http://www.w3.org/2000/svg" width="47.85" height="35.78">
  <path d="M33.67 9.61a.94.94 0 1 1 .94.94.93.93 0 0 1-.94-.94zm-10.36 4.3a.94.94 0 1 1 1.87 0 .94.94 0 0 1-1.87 0zm5.21 2.3a.94.94 0 1 1 1.87 0 .94.94 0 0 1-1.87 0zm-15.86.37a.94.94 0 1 1 1.87 0 .94.94 0 0 1-1.87 0zM18 19.7a.93.93 0 1 1 .93.93.93.93 0 0 1-.93-.93zm17.54-6.78v11.2h3.31V5.86H9.27v18.26h3.39v-3.7a.94.94 0 0 1 1.87 0v3.7h3.38v-.9a.94.94 0 0 1 1.87 0v.9h3.39V17.8a.94.94 0 0 1 1.87 0v6.32h3.38v-4.16a.94.94 0 0 1 1.87 0v4.16h3.39v-11.2a.93.93 0 1 1 1.86 0zM8.34 25.99a.93.93 0 0 1-.94-.92V4.92a.93.93 0 0 1 .93-.93h31.52a.93.93 0 0 1 .93.93v20.13a.94.94 0 0 1-.93.94zm34.28-.46a.93.93 0 1 1 .93.93.93.93 0 0 1-.93-.93zM1.85 30.45a3.46 3.46 0 0 0 3.45 3.46h37.2a3.46 3.46 0 0 0 3.46-3.46v-.53H28.79a3.45 3.45 0 0 1-3.31 2.51h-3.13a3.45 3.45 0 0 1-3.32-2.51H1.85zm3.45 5.33A5.33 5.33 0 0 1 0 30.45v-1.46a.93.93 0 0 1 .93-.94h2.32V3.84A3.84 3.84 0 0 1 7.09 0h33.67a3.84 3.84 0 0 1 3.83 3.84v18a.94.94 0 1 1-1.87 0v-18a2 2 0 0 0-2-2H7.09a2 2 0 0 0-2 2v24.21h14.76a.94.94 0 0 1 .94.94 1.57 1.57 0 0 0 1.56 1.54h3.13a1.57 1.57 0 0 0 1.57-1.57.94.94 0 0 1 .94-.94h18.93a.94.94 0 0 1 .93.94v1.46a5.33 5.33 0 0 1-5.33 5.33H5.32z" fill="#fff"/>
</svg>
