<?xml version="1.0" encoding="utf-8"?>
<!-- Generator: Adobe Illustrator 20.1.0, SVG Export Plug-In . SVG Version: 6.00 Build 0)  -->
<svg version="1.1" id="Слой_1" xmlns="http://www.w3.org/2000/svg" xmlns:xlink="http://www.w3.org/1999/xlink" x="0px" y="0px"
	 viewBox="0 0 20 18.5" style="enable-background:new 0 0 20 18.5;" xml:space="preserve">
<style type="text/css">
	.st0{fill:#adadad;}
</style>
<path class="st0" d="M0-0.2"/>
<path class="st0" d="M1.2,11.6l10-10.1c2-2,5.3-2,7.3-0.1c2,2,2.1,5.2,0.1,7.2c0,0,0,0,0,0l-7.7,7.8l-0.6-0.6l7.7-7.8
	c1.7-1.7,1.6-4.4-0.1-6.1c-1.7-1.6-4.4-1.6-6.1,0.1l-10,10.1c-1.3,1.2-1.3,3.2-0.1,4.5c0,0,0,0,0.1,0.1C3,18,5,18,6.3,16.8
	c0,0,0,0,0,0L16.1,7c0.8-0.8,0.8-2.2,0-3c0,0,0,0,0,0c-0.8-0.8-2.2-0.8-3,0l-7.4,7.4l-0.6-0.6l7.4-7.4c1.2-1.1,3-1.1,4.2,0
	c1.1,1.1,1.2,3,0,4.1c0,0,0,0,0,0L7,17.3c-1.6,1.6-4.2,1.6-5.8,0.1C-0.4,15.8-0.4,13.2,1.2,11.6z"/>
</svg>
