<svg xmlns="http://www.w3.org/2000/svg" width="52" height="52">
  <path d="M52 26a26 26 0 1 1-2.93-12A26 26 0 0 1 52 26z" fill="#cbcbcb"/>
  <path d="M49.06 10.47V38a26 26 0 0 1-46.12 0V10.47a4.59 4.59 0 0 1 4.59-4.59h36.94a4.57 4.57 0 0 1 4.59 4.57z" fill="#77519e"/>
  <path d="M49.06 28.94v3.35H22.61L26 5.88z" fill="#9461c9"/>
  <path d="M49.06 28.94V38a26 26 0 0 1-46.12 0v-9.06z" fill="#9461c9"/>
  <path d="M49.07 28.94V38A26 26 0 0 1 26 52V28.94z" fill="#eccd05"/>
  <path d="M26 5.88v23.06H2.94V10.47a4.59 4.59 0 0 1 4.59-4.59z" fill="#6a1d87"/>
  <g fill="#fff">
    <path d="M13.17 35.58h2.02v9.23h-2.02z"/>
    <path d="M9.55 39.18h9.23v2.02H9.55zM42.18 19.3l-2.55-2.56 2.55-2.55-1.42-1.42-2.55 2.55-2.55-2.55-1.43 1.42 2.55 2.55-2.55 2.56 1.43 1.42 2.55-2.55 2.55 2.55zm-8.85 18.73h9.55v1.84h-9.55zm0 4.24h9.55v1.84h-9.55zM9.55 16.06h9.23v2.02H9.55z"/>
  </g>
</svg>
