<svg xmlns="http://www.w3.org/2000/svg" width="43.01" height="43.01">
  <path d="M41.33 22.86l-3 .76a.86.86 0 0 0-.62.64 15.63 15.63 0 0 1-2.3 5.47.84.84 0 0 0 0 .9l1.6 2.7L34.35 36l-2.74-1.67a.84.84 0 0 0-.89 0 15.64 15.64 0 0 1-5.41 2.22.84.84 0 0 0-.65.62l-.78 3.13h-3.73l-.8-3.16a.85.85 0 0 0-.63-.62 15.87 15.87 0 0 1-4.56-1.74l2.43-2.43A12.6 12.6 0 1 0 26.44 9.2a.84.84 0 0 0-1.11.43.82.82 0 0 0 .43 1.1h.09a10.93 10.93 0 1 1-7.09 20.68c-.31-.11-.61-.23-.91-.36l2.69-2.68a7.57 7.57 0 1 0-5.94-8.91 7.43 7.43 0 0 0 0 3l-2.68 2.68a10.93 10.93 0 0 1 6-14.26l.3-.12a.84.84 0 0 0-.6-1.57 12.6 12.6 0 0 0-7.35 16.23q.19.51.42 1l-2.47 2.43a15.87 15.87 0 0 1-1.74-4.56.86.86 0 0 0-.62-.64l-3.16-.79v-3.73l3.13-.78a.84.84 0 0 0 .62-.65 15.6 15.6 0 0 1 2.22-5.41.84.84 0 0 0 0-.9L7.01 8.66 9.67 6l2.7 1.62a.84.84 0 0 0 .9 0 15.77 15.77 0 0 1 5.48-2.29.83.83 0 0 0 .64-.62l.76-3h3.73l.75 3a.83.83 0 0 0 .65.62 15.69 15.69 0 0 1 5.54 2.29.86.86 0 0 0 .89 0L34.35 6l2.66 2.66-1.61 2.64a.84.84 0 0 0 0 .9 15.71 15.71 0 0 1 2.29 5.53.83.83 0 0 0 .62.65l3 .75zm-21.17 3.55l-.12.12A5.87 5.87 0 0 1 16.48 23l.12-.12 5.35-1.79zM24.07 20a.84.84 0 0 0-.52-1.07.83.83 0 0 0-.54 0l-6.87 2.29V21a5.89 5.89 0 1 1 5.87 5.88h-.26zM12.22 34.35L7.77 38.8l-3.56-3.56 4.44-4.45 3.62-3.61 2.92-2.93a7.63 7.63 0 0 0 3.57 3.57l-2.92 2.91zm-6.21 6.23a2.51 2.51 0 0 1-3.54 0A2.51 2.51 0 0 1 2.41 37l.6-.6L6.58 40zm36.36-22.92l-3.13-.78a17.54 17.54 0 0 0-2.13-5.16L38.77 9a.83.83 0 0 0-.13-1l-3.56-3.63a.83.83 0 0 0-1-.13L31.29 5.9a17.27 17.27 0 0 0-5.16-2.13L25.35.64a.84.84 0 0 0-.82-.64h-5a.84.84 0 0 0-.81.64l-.8 3.17a17.38 17.38 0 0 0-5.09 2.12l-2.82-1.69a.83.83 0 0 0-1 .13L5.39 7.93a.83.83 0 0 0-.13 1l1.75 2.89a17.38 17.38 0 0 0-2.06 5l-3.27.81a.85.85 0 0 0-.63.82v5a.83.83 0 0 0 .63.81l3.3.82a17.48 17.48 0 0 0 2 4.93l-4.55 4.63-1.19 1.2a4.17 4.17 0 0 0 0 5.9 4.17 4.17 0 0 0 5.9 0l1.19-1.19 4.6-4.55a17.54 17.54 0 0 0 4.92 2l.83 3.3a.84.84 0 0 0 .81.63h5a.85.85 0 0 0 .82-.63l.81-3.27a17.38 17.38 0 0 0 5-2.06l2.89 1.78a.83.83 0 0 0 1-.13l3.56-3.56a.85.85 0 0 0 .13-1L37 30.24a17.13 17.13 0 0 0 2.13-5.09l3.17-.79a.84.84 0 0 0 .64-.81v-5a.84.84 0 0 0-.64-.82z" fill="#fff"/>
</svg>
